<svg width="21" height="21" viewBox="0 0 21 21" fill="none" xmlns="http://www.w3.org/2000/svg">
<path d="M6.92997 15.6499C6.92997 15.9426 6.84317 16.2288 6.68055 16.4722C6.51792 16.7156 6.28678 16.9052 6.01634 17.0173C5.74591 17.1293 5.44833 17.1586 5.16124 17.1015C4.87415 17.0444 4.61043 16.9034 4.40345 16.6964C4.19647 16.4895 4.05552 16.2257 3.99841 15.9387C3.9413 15.6516 3.97061 15.354 4.08263 15.0836C4.19465 14.8131 4.38434 14.582 4.62773 14.4193C4.87111 14.2567 5.15725 14.1699 5.44997 14.1699C5.64433 14.1699 5.83678 14.2082 6.01634 14.2826C6.1959 14.357 6.35906 14.466 6.49649 14.6034C6.63392 14.7408 6.74294 14.904 6.81731 15.0836C6.89169 15.2631 6.92997 15.4556 6.92997 15.6499Z" fill="#E7352C"/>
<path d="M19.8399 14.1099C19.3681 10.8295 17.8467 7.79007 15.5032 5.44661C13.1597 3.10315 10.1203 1.58166 6.83994 1.10986C6.05593 1.52604 5.33255 2.04755 4.68994 2.65986V4.08986C7.91508 4.09251 11.0075 5.37418 13.289 7.65376C15.5704 9.93334 16.8546 13.0247 16.8599 16.2499H18.2899C18.8968 15.6064 19.4178 14.8871 19.8399 14.1099Z" fill="#E7352C"/>
<path d="M21 9.62013C21 8.35259 20.7495 7.09755 20.263 5.92713C19.7764 4.75671 19.0633 3.69398 18.1647 2.80002C17.2661 1.90607 16.1997 1.19851 15.0268 0.718008C13.8538 0.237508 12.5975 -0.00645807 11.33 0.00012995C10.99 0.00012995 10.66 0.000129949 10.33 0.05013L10.11 0.69013C12.4514 1.51063 14.5783 2.84703 16.3335 4.60048C18.0887 6.35394 19.4272 8.47956 20.25 10.8201L20.89 10.5901C20.89 10.2701 20.95 9.95013 20.95 9.59013" fill="#E7352C"/>
<path d="M11.4401 21C8.41462 21 5.51236 19.8016 3.36838 17.667C1.22439 15.5324 0.0132756 12.6354 5.2532e-05 9.61002C-0.00451824 8.10698 0.28923 6.61798 0.864276 5.22928C1.43932 3.84059 2.28423 2.57982 3.35005 1.52002L4.00005 2.13002C3.00956 3.11179 2.22334 4.28004 1.68679 5.56732C1.15025 6.85459 0.874002 8.2354 0.874002 9.63002C0.874002 11.0246 1.15025 12.4054 1.68679 13.6927C2.22334 14.98 3.00956 16.1482 4.00005 17.13C4.98183 18.1205 6.15007 18.9067 7.43735 19.4433C8.72463 19.9798 10.1054 20.2561 11.5001 20.2561C12.8947 20.2561 14.2755 19.9798 15.5628 19.4433C16.85 18.9067 18.0183 18.1205 19.0001 17.13L19.6101 17.74C18.5337 18.7997 17.2566 19.6339 15.8537 20.1937C14.4508 20.7535 12.9503 21.0276 11.4401 21Z" fill="#E7352C"/>
<path d="M11.31 16.9101C11.4132 15.7843 11.2276 14.6509 10.771 13.6168C10.3143 12.5827 9.60153 11.6821 8.70003 11.0001C7.73417 10.2395 6.57271 9.76799 5.35003 9.64006C5.19716 9.6201 5.05753 9.543 4.9592 9.42426C4.86087 9.30553 4.81115 9.15397 4.82003 9.00006C4.82627 8.92155 4.84816 8.84509 4.88442 8.77518C4.92068 8.70526 4.97057 8.64332 5.03115 8.59299C5.09173 8.54266 5.16177 8.50497 5.23715 8.48214C5.31252 8.45931 5.39171 8.45181 5.47003 8.46006C7.53391 8.67468 9.42887 9.69773 10.7406 11.3055C12.0523 12.9133 12.6741 14.9751 12.47 17.0401C12.4289 17.4976 12.3417 17.9499 12.21 18.3901L13.95 18.8801C14.465 18.732 14.9667 18.5413 15.45 18.3101C15.5795 17.6345 15.6431 16.9479 15.64 16.2601C15.637 13.6342 14.6948 11.0961 12.9837 9.10437C11.2726 7.11263 8.90542 5.79871 6.31003 5.40006C5.73154 5.29373 5.13852 5.29373 4.56003 5.40006C3.82774 5.59353 3.16973 6.00087 2.67003 6.57006C2.26715 7.03654 1.9858 7.59536 1.85102 8.19681C1.71623 8.79826 1.73218 9.4237 1.89746 10.0175C2.06273 10.6113 2.3722 11.155 2.79834 11.6004C3.22448 12.0457 3.75408 12.3788 4.34003 12.5701C4.65 12.644 4.96381 12.7007 5.28003 12.7401C6.09684 12.8793 6.83804 13.3031 7.37245 13.9363C7.90686 14.5696 8.20001 15.3715 8.20003 16.2001C8.19999 16.871 8.00548 17.5274 7.64003 18.0901L8.84003 18.8601C9.42818 19.0214 10.0313 19.1219 10.64 19.1601C10.9988 18.4402 11.2224 17.6606 11.3 16.8601" fill="#E7352C"/>
</svg>
